<?xml version="1.0" encoding="utf-8"?>
<!-- Generator: Adobe Illustrator 24.0.2, SVG Export Plug-In . SVG Version: 6.00 Build 0)  -->
<svg version="1.1" id="Capa_1" xmlns="http://www.w3.org/2000/svg" xmlns:xlink="http://www.w3.org/1999/xlink" x="0px" y="0px"
	 viewBox="0 0 1644 216" style="enable-background:new 0 0 1644 216;" xml:space="preserve">
<g>
	<g>
		<path d="M23.51,36.5c7.33,0,11,4.6,11,13.8c0,1.36,0,2.04,0,3.4c-0.93,34.07-1.87,68.13-2.8,102.2c0,3.44,0,5.16,0,8.6
			c1.12,1.44,1.68,2.16,2.8,3.6c22.73-13.17,48.63-29.07,75.4-29.4c5.93-0.07,9.73,5.13,11.2,15.4c0,3.52,0,5.28,0,8.8
			c-7.79,12.03-35.49,13.58-46.2,17.2c-17.25,5.82-34.97,19.8-51.4,31.2c-1.76,0-2.64,0-4.4,0C8,208.8,6.87,190.22,6.71,181.9
			c-0.62-33.58,3.26-71.8,6.05-107.62c0.87-11.21,0.08-25.72,4.95-35.98c0.56-0.72,0.84-1.08,1.4-1.8
			C20.87,36.5,21.75,36.5,23.51,36.5z"/>
		<path d="M218.91,36.7c32.41,0.31,48.86,28.43,55.8,56.8c0.56,6.32,0.84,9.48,1.4,15.8c0.12,44.88-27.47,77.96-67.2,95.8
			c-4.4,2.4-10.6,3.6-18.6,3.6c-33.95-6.51-59.62-29.25-58.8-65.6c0-4.96,0-7.44,0-12.4c-0.11-44.55,31.35-75.21,70-92.2
			C208.47,37.78,211.95,37.42,218.91,36.7z M152.91,136.1c0,0.64,0,0.96,0,1.6c-0.3,23.05,19.25,37.63,38.8,39.2
			c23.94,1.92,43.61-21.19,57.2-40.8c2.8-6.4,4.73-14.67,5.8-24.8c-2.36-17.14-10.09-41.06-31.4-40.8c-2.96,0-4.44,0-7.4,0
			c-28.12-0.07-46.27,20.5-60.2,42.4C154.59,122.18,154.03,126.82,152.91,136.1z"/>
		<path d="M363.51,32.9c11.55-0.03,13.79,14.35,13.6,22.94c-0.01,0.29-0.04,0.61-0.14,0.89c-1.5,4.53-3.88,8.12-7.13,10.79
			c-0.46,0.38-1.06,0.57-1.66,0.57c-1.71,0-2.56,0-4.26,0c-0.27,0-0.54-0.04-0.8-0.12c-4-1.26-5.99-1.89-9.99-3.14
			c-0.28-0.09-0.57-0.14-0.86-0.13c-19.67,0.55-37.25,18.32-50.18,31.01c-0.5,0.49-0.78,1.18-0.78,1.88c0,0.28,0,0.42,0,0.7
			c0,3.57,7.07,5.76,21.2,6.58c0.26,0.01,0.52-0.01,0.78-0.07c21.01-4.94,42.03-9.88,63.04-14.82c0.25-0.06,0.51-0.09,0.77-0.07
			c4.56,0.35,7.56,6.96,8.99,19.83c0.01,0.1,0.02,0.21,0.02,0.31c0,1.94,0,2.91,0,4.84c-0.1,28.37-16.26,52.8-33.48,73.43
			c-0.2,0.24-0.47,0.45-0.75,0.61c-16.21,8.98-31.97,17.61-50.6,19.04c-0.18,0.01-0.36,0.02-0.54,0
			c-21.34-2.65-43.37-15.7-62.11-26.64C236.75,174.39,206.8,159.91,207,143c0.74-2.71,1.11-4.06,1.85-6.77
			c0.61-2.25,1.15-4.23,5.22-2.6c2.28,0.91,3.42,1.37,5.7,2.28c0.15,0.06,0.3,0.13,0.43,0.22c18.93,11.96,37.86,23.91,56.79,35.87
			c10.55,6.63,23.19,8.49,35.31,8.3c26.35-0.43,44.79-22.68,57.6-42.75c0.26-0.41,0.4-0.91,0.4-1.4c0-1.4,0-2.1,0-3.5
			c0-0.61-0.21-1.2-0.6-1.68c-0.48-0.59-0.72-0.89-1.21-1.48c-0.5-0.62-1.26-0.98-2.06-0.98l0,0c-0.09,0-0.18,0-0.27,0.01
			c-15.64,1.59-31.28,3.18-46.92,4.77c-0.1,0.01-0.2,0.01-0.29,0.01c-14.04,0.09-39.33-2.15-39.25-21.6c0-2.08,0-3.12,0-5.2
			c-0.13-41.58,40.63-62.17,74.19-73.47c0.26-0.09,0.55-0.13,0.83-0.13C358.24,32.9,360,32.9,363.51,32.9z"/>
		<path d="M562.11,32.1c1.28,0,1.92,0,3.2,0c14.79,1.32,15.19,23.12,15,33.8c0.56,0.72,0.84,1.08,1.4,1.8
			c-0.47,15.33-0.93,30.67-1.4,46c0,25.47,0,50.93,0,76.4c0,9.07-5.9,17.39-12.2,17.8c-7.57,0.49-17.64-12.45-23.95-19.95
			c-15.71-18.66-28.97-39.46-42.25-59.85c-0.64-0.72-0.96-1.08-1.6-1.8c-0.64,0-0.96,0-1.6,0c-6.12,23.53-6.98,48.69-9,72.8
			c-3.2,5.87-7.2,8.8-12,8.8c-2.48,0-3.72,0-6.2,0c-4.93-3.07-7.4-7.8-7.4-14.2c7.75-47.69,14.54-95.58,18-143.8
			c3.68-4.24,5.52-6.36,9.2-10.6c1.84,0,2.76,0,4.6,0c11.72,10.65,14.7,36.23,19.6,49.6c7.73,21.08,19.51,45.94,37.6,62.2
			c0.64-0.72,0.96-1.08,1.6-1.8c0.93-10.67,1.87-21.33,2.8-32c-1.47-23.07-2.93-46.13-4.4-69.2
			C553.11,42.5,556.11,37.16,562.11,32.1z"/>
		<path d="M702.9,5.5c5.47,2.13,8.2,4.33,8.2,6.6c0,2.08,0,3.12,0,5.2c-4.55,10.82-21.83,14.72-31.6,18.6
			c12.04,11.58,11.57,45.64,13.6,60.8c9.13,28.2,18.27,56.4,27.4,84.6c-3.33,11.33-9.62,18.01-14.8,17
			c-9.44-1.84-13.27-25.63-15-35.6c-3.47-3.2-6.67-4.8-9.6-4.8c-14.97,2.76-60.33,6.21-64.2,26.8c-2.95,8.81-6.09,18.41-12.4,25.4
			c-0.56,0-0.84,0-1.4,0c-6.4,0-10.93-6.2-13.6-18.6c18.02-49.27,42.99-96.57,65.6-143.8c-1.2,0-1.8,0-3,0
			c-2.16,0.72-3.24,1.08-5.4,1.8c-5.47-2.4-8.2-4.67-8.2-6.8c0-2.08,0-3.12,0-5.2C649.17,20.25,685.72,12.15,702.9,5.5z M664.7,79.9
			c-8.2,18-16.4,36-24.6,54c0,0.72,0,1.08,0,1.8c12.73-2.8,25.47-5.6,38.2-8.4c0-0.72,0-1.08,0-1.8
			C673.77,110.3,669.24,95.1,664.7,79.9z"/>
		<path d="M801,46c2.96,0.04,17.71,1.63,23,2c26.87,1.9,10.65,48.17,7.3,62.1c0,1.36,0,2.04,0,3.4c0.12,38.07-12.69,77.46-51,92.2
			c-10.64,2.08-15.96,3.12-26.6,5.2c-30.01-0.26-33.94-35.91-34-58.8c0-8.72,0-13.08,0-21.8c0.4-22.79-12.23-39.51-17.71-60.49
			c-5.73-21.91,13.98-23.35,32.31-21.71c1.28,0,1.92,0,3.2,0c4.43,0,21.55-0.04,21.5,9.08c-0.09,16.5-14.61,30.26-16.68,45.74
			c-2.15,16.15-2.41,33.77-2.63,50.77c0,2.72,0,4.08,0,6.8c0,11.42,2.63,18.35,7.9,20.8c2.19,1.02,4.74,1.08,7.03,0.37
			c14.42-4.47,40.09-10.34,46.86-24.85c0.64-1.36,1.52-2.93,2.43-4.1c5.92-7.61,6.79-22.4,7.98-32.42
			c-0.34-2.22-0.51-3.33-0.85-5.54c-0.54-3.52-2.02-6.82-4.17-9.63C799.31,95.18,770.84,45.56,801,46z"/>
		<path d="M925.9,32.1c1.04,0,1.56,0,2.6,0c8.66,1.47,13,6.33,13,14.6c0,7.6-2.6,13.47-7.8,17.6c-4.72-1.28-7.08-1.92-11.8-3.2
			c-12.25,2.62-49.73,5.69-54.6,21c-1.33,9.67-2.67,19.33-4,29c0.56,2,0.84,3,1.4,5c18.67-5.51,38.86-12.64,58.6-13
			c4.16,0,6.24,0,10.4,0c3.46,1.73,5.19,5.48,5.2,11.2c0.03,14.18-13.29,18.49-24.8,19.4c-13.35,1.06-52.35,6.21-53.4,25.8
			c-0.62,11.44,3.16,43.08-11.6,48.4c-0.56,0-0.84,0-1.4,0c-6.93-2.67-10.4-10.73-10.4-24.2c2.6-32.27,5.2-64.53,7.8-96.8
			c-2.08-7.04-3.12-10.56-5.2-17.6c1.27-26.69,52.79-31.17,70.4-34C910.3,33.43,915.5,32.37,925.9,32.1z"/>
		<path d="M1069.1,33.7c11.71,1.02,22.14,12.81,21.2,26.4c0,2.08,0,3.12,0,5.2c-1.17,26.14-33.02,43.79-52.2,56
			c18.79,19.39,42.01,43.4,42.4,71.8c0.08,6.05-3.33,11.93-10,17.4c-2.16,0-3.24,0-5.4,0c-5.2-11.67-10.4-23.33-15.6-35
			c-11.4-17.85-29.06-31.49-51-31.4c-4.56,0-6.84,0-11.4,0c-2.72,0.64-4.08,0.96-6.8,1.6c0,3.52,0,5.28,0,8.8
			c0.4,10.53,0.8,21.07,1.2,31.6c-0.4,9.76-7.48,22.77-16.8,21c-4.08-0.78-7-5.8-7-12.2c0-12.33,0-24.67,0-37
			c1.4-20.4,2.8-40.8,4.2-61.2c0-1.36,0-2.04,0-3.4c-1.2-8.4-1.8-12.6-3-21c-0.31-22.08,27.25-26.71,42.4-29.8
			C1021.03,38.47,1048.85,31.92,1069.1,33.7z M982.9,110.9c0.56,0,0.84,0,1.4,0c29.44-0.76,56.44-24.62,77.8-42.2
			c0.56-0.72,0.84-1.08,1.4-1.8c0-0.64,0-0.96,0-1.6c-2.24,0-3.36,0-5.6,0c-24.35,0.08-47.82,6.54-70.8,14
			C985.7,89.83,984.3,100.36,982.9,110.9z"/>
		<path d="M1160.9,37.5c2.16,0,3.24,0,5.4,0c17.98,5.85,17.53,46.58,19,61c9.13,28.13,18.27,56.27,27.4,84.4
			c-3.6,11.2-9.96,17.8-15,16.8c-9.3-1.85-13.21-25.48-15-35.4c-3.33-3.47-6.53-5.2-9.6-5.2c-15.05,2.83-60.22,6.47-64,27.2
			c-2.98,8.81-6.16,18.33-12.4,25.4c-0.48,0-0.72,0-1.2,0c-6.4,0-11-6.2-13.8-18.6c15-33.87,30-67.73,45-101.6
			C1133.29,76.34,1142.6,42.72,1160.9,37.5z M1156.9,81.5c-8.27,18.6-16.53,37.2-24.8,55.8c0.64,0,0.96,0,1.6,0
			c12.27-3.4,24.53-6.8,36.8-10.2C1166.65,112.47,1164.13,95.03,1156.9,81.5z"/>
		<path d="M1318.1,32.9c2.72,0,4.08,0,6.8,0c8.8,1.6,13.2,6.6,13.2,15c0,4,0,6,0,10c-3.07,6.67-7.47,10-13.2,10
			c-3.84-2-5.76-3-9.6-5c-29.83,9.9-56.69,28.66-72.2,56.4c-6.08,11.57-12.46,23.73-12,36.4c0.57,15.83,23.54,19.32,36.2,21.6
			c3.76,0,5.64,0,9.4,0c31.06-0.29,50.22-23.17,64.2-48.2c0-1.92,0-2.88,0-4.8c-0.93-3.33-3.67-5-8.2-5c-2.08,0-3.12,0-5.2,0
			c-17.17-0.47-33.37,8.47-45.6,19.8c-0.56,0-0.84,0-1.4,0c-5.34-2.8-8-7.73-8-14.8c0-3.36,0-5.04,0-8.4
			c11.37-19.56,33.42-26.79,55-26.6c1.6,0,2.4,0,4,0c14.76,1.37,33.88,8.98,33.6,26.6c0,1.36,0,2.04,0,3.4
			c0.6,30.34-21.67,54.25-43,72.8c-16.56,8.9-33.12,16.13-52.2,16.6c-27.39,0.67-49.56-14.47-56.2-41.4
			c-0.64-5.92-0.96-8.88-1.6-14.8c0.31-34.31,19.32-66.07,41.8-86.2C1269.06,52.72,1294.39,33.46,1318.1,32.9z"/>
		<path d="M1457.49,36.7c32.41,0.31,48.87,28.43,55.8,56.8c0.56,6.32,0.84,9.48,1.4,15.8c0.12,44.88-27.47,77.96-67.2,95.8
			c-4.4,2.4-10.6,3.6-18.6,3.6c-33.95-6.51-59.62-29.25-58.8-65.6c0-4.96,0-7.44,0-12.4c-0.11-44.55,31.35-75.21,70-92.2
			C1447.05,37.78,1450.53,37.42,1457.49,36.7z M1391.49,136.1c0,0.64,0,0.96,0,1.6c-0.3,23.05,19.25,37.63,38.8,39.2
			c23.94,1.92,43.61-21.19,57.2-40.8c2.8-6.4,4.73-14.67,5.8-24.8c-2.36-17.14-10.09-41.06-31.4-40.8c-2.96,0-4.44,0-7.4,0
			c-28.12-0.07-46.27,20.5-60.2,42.4C1393.17,122.18,1392.61,126.82,1391.49,136.1z"/>
		<path d="M1604.09,32.9c11.73-0.01,15,15.72,13.6,23.4c-0.84,4.58-4.27,9-8,11.8c-2.24,0-3.36,0-5.6,0
			c-4.32-1.36-6.48-2.04-10.8-3.4c-20.37,0.46-37.97,18.84-51.4,31.8c0,0.72,0,1.08,0,1.8c0,3.6,7.2,5.8,21.6,6.6
			c21.27-5,42.53-10,63.8-15c4.8,0,7.93,6.67,9.4,20c0,2,0,3,0,5c-0.1,28.54-16.49,52.55-33.8,73.8
			c-14.93,10.55-32.24,22.07-51.4,21.8c-16.22-3.28-38.17-11.84-38-31.8c0-2,0-3,0-5c0-6.27,3.13-11.87,9.4-16.8c1.6,0,2.4,0,4,0
			c4.4,7.36,6.6,11.04,11,18.4c5.07,3.33,10.07,5,15,5c27-0.02,44.58-22.97,58-43.4c0-2.08,0-3.12,0-5.2
			c-1.04-1.28-1.56-1.92-2.6-3.2c-0.56,0-0.84,0-1.4,0c-15.73,1.6-31.47,3.2-47.2,4.8c-13.89,0.21-39.76-2.1-39.4-21.6
			c0-2.08,0-3.12,0-5.2c-0.13-41.74,40.66-61.78,74.6-73.6C1598.57,32.9,1600.41,32.9,1604.09,32.9z"/>
	</g>
</g>
</svg>
